<svg xmlns="http://www.w3.org/2000/svg" width="22.7" height="19.7" viewBox="0 0 22.7 19.7"><defs><filter id="a" width="200%" height="200%" x="-50%" y="-50%"><feMorphology in="SourceGraphic" operator="dilate" result="SvgjsFeMorphology1061Out"/><feOffset dx=".7" dy=".7" in="SvgjsFeMorphology1061Out" result="SvgjsFeOffset1062Out"/><feGaussianBlur in="SvgjsFeOffset1062Out" result="SvgjsFeGaussianBlur1063Out"/><feComposite in="SvgjsFeGaussianBlur1063Out" in2="SourceAlpha" operator="out" result="SvgjsFeComposite1064Out"/></filter></defs><path fill-opacity=".25" d="M922.98 12724.8h5.66c.63 0 1.13.5 1.13 1.1v9.1c0 .6-.5 1.1-1.13 1.1h-5.66c-.62 0-1.13-.5-1.13-1.1v-9.1c0-.6.5-1.1 1.13-1.1zm.02 2.7a.5.5 0 0 0 1 0v-1a.5.5 0 0 0-1 0zm2 0a.5.5 0 0 0 1 0v-1a.5.5 0 0 0-1 0zm3 0a.5.5 0 0 0 1 0v-1a.5.5 0 0 0-1 0zm-5 4a.5.5 0 0 0 1 0v-2a.5.5 0 0 0-1 0zm2 0a.5.5 0 0 0 1 0v-2a.5.5 0 0 0-1 0zm3 0a.5.5 0 0 0 1 0v-2a.5.5 0 0 0-1 0zm-5 3a.5.5 0 0 0 1 0v-1a.5.5 0 0 0-1 0zm5 0a.5.5 0 0 0 1 0v-1a.5.5 0 0 0-1 0zm4.04-16.5h8.98c.63 0 1.2.5 1.2 1.2v15.8s-.43 1.1-1.06 1.1h-9.12s-1.13-.5-1.13-1.1v-15.8c0-.7.5-1.2 1.13-1.2zm-.04 6a1 1 0 1 0 2 0 1 1 0 0 0-2 0zm0 3a1 1 0 1 0 2 0 1 1 0 0 0-2 0zm0 4a1 1 0 0 0 2 0v-1a1 1 0 0 0-2 0zm0 3a1 1 0 1 0 2 0 1 1 0 0 0-2 0zm7-10a1 1 0 1 0 2 0 1 1 0 0 0-2 0zm0 3a1 1 0 1 0 2 0 1 1 0 0 0-2 0zm0 4a1 1 0 0 0 2 0v-1a1 1 0 0 0-2 0zm0 3a1 1 0 1 0 2 0 1 1 0 0 0-2 0zm-7-14a1 1 0 1 0 2 0 1 1 0 0 0-2 0zm7 0a1 1 0 1 0 2 0 1 1 0 0 0-2 0zm-4 4a1 1 0 0 0 1 1h1a1 1 0 0 0 0-2h-1a1 1 0 0 0-1 1zm0 3a1 1 0 0 0 1 1h1a1 1 0 0 0 0-2h-1a1 1 0 0 0-1 1zm0 4a1 1 0 0 0 1 1h1a1 1 0 0 0 1-1v-1a1 1 0 0 0-1-1h-1a1 1 0 0 0-1 1zm0-11a1 1 0 0 0 1 1h1a1 1 0 0 0 0-2h-1a1 1 0 0 0-1 1z" filter="url(#a)" transform="translate(-921 -12718)"/><path fill="#614261" d="M1.98 6.8h5.66c.63 0 1.13.5 1.13 1.1V17c0 .6-.5 1.1-1.13 1.1H1.98c-.62 0-1.13-.5-1.13-1.1V7.9c0-.6.5-1.1 1.13-1.1zM2 9.5a.5.5 0 0 0 1 0v-1a.5.5 0 0 0-1 0zm2 0a.5.5 0 0 0 1 0v-1a.5.5 0 0 0-1 0zm3 0a.5.5 0 0 0 1 0v-1a.5.5 0 0 0-1 0zm-5 4a.5.5 0 0 0 1 0v-2a.5.5 0 0 0-1 0zm2 0a.5.5 0 0 0 1 0v-2a.5.5 0 0 0-1 0zm3 0a.5.5 0 0 0 1 0v-2a.5.5 0 0 0-1 0zm-5 3a.5.5 0 0 0 1 0v-1a.5.5 0 0 0-1 0zm5 0a.5.5 0 0 0 1 0v-1a.5.5 0 0 0-1 0zM11.04 0h8.98c.63 0 1.2.5 1.2 1.2V17s-.43 1.1-1.06 1.1h-9.12S9.9 17.6 9.9 17V1.2c0-.7.51-1.2 1.14-1.2zM11 6a1 1 0 1 0 2 0 1 1 0 0 0-2 0zm0 3a1 1 0 1 0 2 0 1 1 0 0 0-2 0zm0 4a1 1 0 0 0 2 0v-1a1 1 0 0 0-2 0zm0 3a1 1 0 1 0 2 0 1 1 0 0 0-2 0zm7-10a1 1 0 1 0 2 0 1 1 0 0 0-2 0zm0 3a1 1 0 1 0 2 0 1 1 0 0 0-2 0zm0 4a1 1 0 0 0 2 0v-1a1 1 0 0 0-2 0zm0 3a1 1 0 1 0 2 0 1 1 0 0 0-2 0zM11 2a1 1 0 1 0 2 0 1 1 0 0 0-2 0zm7 0a1 1 0 1 0 2 0 1 1 0 0 0-2 0zm-4 4a1 1 0 0 0 1 1h1a1 1 0 0 0 0-2h-1a1 1 0 0 0-1 1zm0 3a1 1 0 0 0 1 1h1a1 1 0 0 0 0-2h-1a1 1 0 0 0-1 1zm0 4a1 1 0 0 0 1 1h1a1 1 0 0 0 1-1v-1a1 1 0 0 0-1-1h-1a1 1 0 0 0-1 1zm0-11a1 1 0 0 0 1 1h1a1 1 0 0 0 0-2h-1a1 1 0 0 0-1 1z"/><path fill="#614261" d="M1.98 6.8h5.66c.63 0 1.13.5 1.13 1.1V17c0 .6-.5 1.1-1.13 1.1H1.98c-.62 0-1.13-.5-1.13-1.1V7.9c0-.6.5-1.1 1.13-1.1zM2 9.5a.5.5 0 0 0 1 0v-1a.5.5 0 0 0-1 0zm2 0a.5.5 0 0 0 1 0v-1a.5.5 0 0 0-1 0zm3 0a.5.5 0 0 0 1 0v-1a.5.5 0 0 0-1 0zm-5 4a.5.5 0 0 0 1 0v-2a.5.5 0 0 0-1 0zm2 0a.5.5 0 0 0 1 0v-2a.5.5 0 0 0-1 0zm3 0a.5.5 0 0 0 1 0v-2a.5.5 0 0 0-1 0zm-5 3a.5.5 0 0 0 1 0v-1a.5.5 0 0 0-1 0zm5 0a.5.5 0 0 0 1 0v-1a.5.5 0 0 0-1 0zM11.04 0h8.98c.63 0 1.2.5 1.2 1.2V17s-.43 1.1-1.06 1.1h-9.12S9.9 17.6 9.9 17V1.2c0-.7.51-1.2 1.14-1.2zM11 6a1 1 0 1 0 2 0 1 1 0 0 0-2 0zm0 3a1 1 0 1 0 2 0 1 1 0 0 0-2 0zm0 4a1 1 0 0 0 2 0v-1a1 1 0 0 0-2 0zm0 3a1 1 0 1 0 2 0 1 1 0 0 0-2 0zm7-10a1 1 0 1 0 2 0 1 1 0 0 0-2 0zm0 3a1 1 0 1 0 2 0 1 1 0 0 0-2 0zm0 4a1 1 0 0 0 2 0v-1a1 1 0 0 0-2 0zm0 3a1 1 0 1 0 2 0 1 1 0 0 0-2 0zM11 2a1 1 0 1 0 2 0 1 1 0 0 0-2 0zm7 0a1 1 0 1 0 2 0 1 1 0 0 0-2 0zm-4 4a1 1 0 0 0 1 1h1a1 1 0 0 0 0-2h-1a1 1 0 0 0-1 1zm0 3a1 1 0 0 0 1 1h1a1 1 0 0 0 0-2h-1a1 1 0 0 0-1 1zm0 4a1 1 0 0 0 1 1h1a1 1 0 0 0 1-1v-1a1 1 0 0 0-1-1h-1a1 1 0 0 0-1 1zm0-11a1 1 0 0 0 1 1h1a1 1 0 0 0 0-2h-1a1 1 0 0 0-1 1z"/><path fill="#fff" d="M1.98 6.8h5.66c.63 0 1.13.5 1.13 1.1V17c0 .6-.5 1.1-1.13 1.1H1.98c-.62 0-1.13-.5-1.13-1.1V7.9c0-.6.5-1.1 1.13-1.1zM2 9.5a.5.5 0 0 0 1 0v-1a.5.5 0 0 0-1 0zm2 0a.5.5 0 0 0 1 0v-1a.5.5 0 0 0-1 0zm3 0a.5.5 0 0 0 1 0v-1a.5.5 0 0 0-1 0zm-5 4a.5.5 0 0 0 1 0v-2a.5.5 0 0 0-1 0zm2 0a.5.5 0 0 0 1 0v-2a.5.5 0 0 0-1 0zm3 0a.5.5 0 0 0 1 0v-2a.5.5 0 0 0-1 0zm-5 3a.5.5 0 0 0 1 0v-1a.5.5 0 0 0-1 0zm5 0a.5.5 0 0 0 1 0v-1a.5.5 0 0 0-1 0zM11.04 0h8.98c.63 0 1.2.5 1.2 1.2V17s-.43 1.1-1.06 1.1h-9.12S9.9 17.6 9.9 17V1.2c0-.7.51-1.2 1.14-1.2zM11 6a1 1 0 1 0 2 0 1 1 0 0 0-2 0zm0 3a1 1 0 1 0 2 0 1 1 0 0 0-2 0zm0 4a1 1 0 0 0 2 0v-1a1 1 0 0 0-2 0zm0 3a1 1 0 1 0 2 0 1 1 0 0 0-2 0zm7-10a1 1 0 1 0 2 0 1 1 0 0 0-2 0zm0 3a1 1 0 1 0 2 0 1 1 0 0 0-2 0zm0 4a1 1 0 0 0 2 0v-1a1 1 0 0 0-2 0zm0 3a1 1 0 1 0 2 0 1 1 0 0 0-2 0zM11 2a1 1 0 1 0 2 0 1 1 0 0 0-2 0zm7 0a1 1 0 1 0 2 0 1 1 0 0 0-2 0zm-4 4a1 1 0 0 0 1 1h1a1 1 0 0 0 0-2h-1a1 1 0 0 0-1 1zm0 3a1 1 0 0 0 1 1h1a1 1 0 0 0 0-2h-1a1 1 0 0 0-1 1zm0 4a1 1 0 0 0 1 1h1a1 1 0 0 0 1-1v-1a1 1 0 0 0-1-1h-1a1 1 0 0 0-1 1zm0-11a1 1 0 0 0 1 1h1a1 1 0 0 0 0-2h-1a1 1 0 0 0-1 1z"/></svg>