<svg xmlns="http://www.w3.org/2000/svg" width="32" height="32" viewBox="0 0 32 32"><path fill="#0d0d0d" d="M31.42 10.59L21.42.58a2 2 0 0 0-3.33.83 9.3 9.3 0 0 1-2.4 3.9c-1.54 1.55-3.56 2.72-5.7 3.96-2.26 1.31-4.6 2.67-6.51 4.59a13.18 13.18 0 0 0-3.4 5.55 2 2 0 0 0 .5 2l10 10a1.99 1.99 0 0 0 3.33-.82 9.23 9.23 0 0 1 2.4-3.9c1.54-1.55 3.56-2.72 5.7-3.96 2.26-1.31 4.6-2.67 6.51-4.59a13.24 13.24 0 0 0 3.4-5.55 2 2 0 0 0-.5-2zM12 30L2 20c2.84-9.2 15.16-8.8 18-18l10 10c-2.84 9.2-15.16 8.8-18 18zm7.56-15.1a2.68 2.68 0 0 0-1.97-.66c-.33.03-.67.1-1 .23-.34.13-.67.28-1.01.44a48.17 48.17 0 0 0-1.62-1.79c.25-.22.48-.33.7-.34.23-.01.45.01.66.07l.58.13c.18.03.34-.01.47-.12a.68.68 0 0 0 .24-.48.81.81 0 0 0-.23-.58 1.28 1.28 0 0 0-.77-.44c-.3-.06-.6-.05-.93.02-.31.07-.62.19-.9.36-.28.16-.51.34-.68.51a3.45 3.45 0 0 0-.2-.19.37.37 0 0 0-.27-.1c-.1 0-.2.05-.27.13a.38.38 0 0 0-.1.29c.02.11.06.19.13.25l.2.17c-.26.31-.47.65-.63 1.01-.17.36-.27.72-.3 1.06a1.83 1.83 0 0 0 .7 1.76c.46.39 1.02.56 1.66.52a5 5 0 0 0 2.07-.63c.6.69 1.19 1.36 1.78 1.99-.25.21-.47.33-.67.37-.19.04-.36.04-.52-.01-.15-.04-.3-.11-.43-.21a4.14 4.14 0 0 0-.4-.23.95.95 0 0 0-.4-.1c-.13 0-.28.06-.44.2a.64.64 0 0 0-.24.5c0 .18.08.37.25.56a2.37 2.37 0 0 0 1.56.71 2.66 2.66 0 0 0 2.15-.91c.18.17.35.34.53.49.07.07.16.1.27.09.1 0 .2-.05.27-.14.07-.09.1-.19.1-.29a.35.35 0 0 0-.13-.25 18.9 18.9 0 0 1-.53-.44c.3-.37.54-.76.72-1.14.18-.38.28-.76.32-1.1.03-.35-.01-.66-.12-.94a1.91 1.91 0 0 0-.6-.77zm-5.59.68a.97.97 0 0 1-.74-.29.75.75 0 0 1-.2-.33.96.96 0 0 1-.04-.41c.01-.15.06-.31.14-.47.07-.16.18-.32.32-.47.5.51 1.01 1.06 1.52 1.63-.38.21-.72.33-1 .34zm4.72 2c-.1.17-.2.31-.32.44a43.06 43.06 0 0 1-1.68-1.82l.46-.2c.16-.07.32-.12.48-.14.17-.03.33-.02.5.02a1 1 0 0 1 .46.27c.14.14.23.28.26.44.04.16.05.32.02.49-.03.17-.09.33-.18.5zm-3.97 4.6a14.6 14.6 0 0 0-3.26 3.25l-.69.93v.01a.5.5 0 0 0 .07.62.5.5 0 0 0 .78-.1l.64-.87a16 16 0 0 1 3.07-3.06l.06-.04a.5.5 0 0 0 0-.71.5.5 0 0 0-.67-.03zm3.66-14.47a15.91 15.91 0 0 1-1.8 1.53c-.2.2-.2.52 0 .72.2.19.5.2.7.01a17.3 17.3 0 0 0 1.8-1.55c.55-.54 1.04-1.11 1.47-1.7l.68-.93v-.01a.5.5 0 0 0-.03-.68.5.5 0 0 0-.8.12l-.66.91c-.4.55-.86 1.08-1.36 1.58z"/></svg>