<svg xmlns="http://www.w3.org/2000/svg" width="28" height="40" viewBox="0 0 28 40"><path fill="#0d0d0d" d="M14 0C6.4 0 .25 6.15.25 13.75c0 5.04 4.61 10.38 6.29 15.07C9.04 35.81 8.77 40 14 40c5.31 0 4.96-4.17 7.46-11.15 1.69-4.7 6.29-10.1 6.29-15.1C27.75 6.15 21.59 0 14 0zm3.24 33.97l-6.2.77c-.22-.64-.46-1.39-.75-2.36v-.04l7.73-.97-.33 1.11-.45 1.49zm-7.32-2.84c-.23-.75-.48-1.54-.77-2.38h9.7l-.43 1.32zM14 37.5c-1.27 0-1.85-.15-2.5-1.56l5.3-.67c-.76 2.07-1.32 2.23-2.8 2.23zm5.84-11.25H8.17a59.78 59.78 0 0 0-2.1-4.02c-1.63-2.92-3.32-5.94-3.32-8.48a11.26 11.26 0 0 1 22.5 0c0 2.52-1.69 5.56-3.32 8.49a62.82 62.82 0 0 0-2.09 4.01zM14 6.25a7.5 7.5 0 0 0-7.5 7.5c0 .34.28.62.63.62.34 0 .62-.28.62-.62 0-3.45 2.8-6.25 6.25-6.25a.63.63 0 0 0 0-1.25z"/></svg>