<svg xmlns="http://www.w3.org/2000/svg" width="33" height="32" viewBox="0 0 33 32"><path fill="#fff" d="M21.68 3.73a2.49 2.49 0 0 0-3.54 0l-1.4 1.41a2.5 2.5 0 0 0-.37 3.09L2.8 13.67a3 3 0 0 0-.9 4.87L14.6 31.12c.55.55 1.27.86 2.04.88h.08a3 3 0 0 0 2.79-1.89l5.34-13.38a2.49 2.49 0 0 0 3.14-.32L29.4 15a2.5 2.5 0 0 0 0-3.54zm-4.02 25.64a1 1 0 0 1-1.64.34L3.3 17.12a1 1 0 0 1 .3-1.62l6.23-2.49c4.19 1.39 8.38.05 12.57 4.52zm10.33-15.79l-1.41 1.41a.5.5 0 0 1-.7 0l-1.78-1.76-1.3 3.28c-3.02-3-6.08-3.38-8.84-3.72-.88-.11-1.74-.22-2.59-.41l8.5-3.4-1.72-1.71a.5.5 0 0 1 0-.71l1.41-1.41c.2-.2.51-.2.7 0L28 12.87c.2.2.2.51 0 .71zm-5.2 2.93l-.12.3zM17.5 21a2.5 2.5 0 1 0 0-5 2.5 2.5 0 0 0 0 5zm0-4a1.5 1.5 0 1 1 0 3 1.5 1.5 0 0 1 0-3zm13-17a2.5 2.5 0 1 0 0 5 2.5 2.5 0 0 0 0-5zm0 4a1.5 1.5 0 1 1 0-3 1.5 1.5 0 0 1 0 3zM9 17a2 2 0 0 0 4 0 2 2 0 0 0-4 0zm2-1a1 1 0 1 1 0 2 1 1 0 0 1 0-2zm3 8a1 1 0 1 0 0-2 1 1 0 0 0 0 2zM30 7a1 1 0 0 0 0 2 1 1 0 0 0 1-1 1 1 0 0 0-1-1z"/></svg>