<svg xmlns="http://www.w3.org/2000/svg" width="32" height="32" viewBox="0 0 32 32"><path fill="#fff" d="M29.16 10.47c-1.24-.33-4.19-.32-8.48-.44.2-.94.25-1.78.25-3.28C20.93 3.16 18.31 0 16 0a3.02 3.02 0 0 0-3 2.98c-.02 2.01-.64 5.49-4 7.25l-1.05.52.05.05a3.13 3.13 0 0 0-2-.8H3a3 3 0 0 0-3 3v16a3 3 0 0 0 3 3h3c1.19 0 2.19-.72 2.67-1.73l.04.01.24.07.05.01c.58.14 1.68.41 4.05.95.51.12 3.2.69 5.98.69h5.46c1.67 0 2.87-.64 3.59-1.93.01-.02.24-.47.42-1.07.15-.46.2-1.11.03-1.76a4.49 4.49 0 0 0 1.64-2.58c.38-1.2.27-2.09 0-2.73a4.69 4.69 0 0 0 1.34-2.77 3.72 3.72 0 0 0-.39-2.37 3.4 3.4 0 0 0 .85-2.18l.02-.2.01-.51a3.7 3.7 0 0 0-2.84-3.43zM7 29a1 1 0 0 1-1 1H3a1 1 0 0 1-1-1V13a1 1 0 0 1 1-1h3a1 1 0 0 1 1 1zm22.98-14.47c-.02.5-.23 1.47-1.98 1.47h-2a.5.5 0 0 0-.5.5c0 .27.22.5.5.5h1.94c1.5 0 1.69 1.24 1.6 1.84-.13.75-.48 2.16-2.16 2.16H25a.5.5 0 0 0-.5.5c0 .27.22.5.5.5h1.97c1.69 0 1.54 1.29 1.3 2.05-.32 1.01-.52 1.95-2.64 1.95h-1.64a.5.5 0 0 0-.5.5c0 .27.23.5.5.5h1.57c1.1 0 1.15 1.03 1.03 1.41-.12.4-.27.7-.28.72-.3.54-.78.87-1.82.87h-5.46c-2.75 0-5.47-.62-5.54-.64-4.16-.96-4.38-1.03-4.64-1.1 0 0-.84-.15-.84-.89L8 13.56c0-.47.3-.89.79-1.04l.21-.08c4.57-1.89 5.96-6.04 6-9.44a1 1 0 0 1 1-1c1.06 0 2.93 2.12 2.93 4.75 0 2.37-.1 2.78-.93 5.25 10 0 9.93.14 10.81.37A1.53 1.53 0 0 1 30 13.9c0 .35-.01.3-.02.63zM4.5 26a1.5 1.5 0 1 0 0 3 1.5 1.5 0 0 0 0-3zm0 2a.5.5 0 0 1-.5-.5c0-.28.22-.5.5-.5s.5.22.5.5a.5.5 0 0 1-.5.5z"/></svg>