<svg xmlns="http://www.w3.org/2000/svg" width="32" height="32" viewBox="0 0 32 32"><path fill="#0d0d0d" d="M8 6.02V3a3 3 0 0 0-3-3 3 3 0 0 0-3 3v3.02a4.97 4.97 0 0 0 0 7.96V29a3 3 0 0 0 3 3 3 3 0 0 0 3-3V13.98a4.99 4.99 0 0 0 0-7.96zM4 3a1 1 0 0 1 1-1 1 1 0 0 1 1 1v2.1a4.71 4.71 0 0 0-2 0zm2 26a1 1 0 0 1-1 1 1 1 0 0 1-1-1V14.9a5.47 5.47 0 0 0 2 0zm1.87-18.16a3.16 3.16 0 0 1-.43.89l-.02.02c-.17.24-.38.45-.61.63H6.8c-.24.19-.51.33-.8.43a2.78 2.78 0 0 1-2 0c-.29-.1-.56-.24-.8-.43h-.01a3.04 3.04 0 0 1-.61-.63l-.02-.02a3.16 3.16 0 0 1-.38-.73l-.05-.16a2.9 2.9 0 0 1 0-1.68L2.18 9c.1-.26.22-.51.38-.74l.02-.01c.17-.24.38-.45.61-.63l.01-.01A3 3 0 0 1 5 7a3 3 0 0 1 2.42 1.25l.02.01c.16.23.28.48.38.74l.05.16a2.9 2.9 0 0 1 0 1.68zM30 6.02V3a3 3 0 0 0-3-3 3 3 0 0 0-3 3v3.02a4.97 4.97 0 0 0 0 7.96V29a3 3 0 0 0 3 3 3 3 0 0 0 3-3V13.98a4.99 4.99 0 0 0 0-7.96zM26 3a1 1 0 0 1 1-1 1 1 0 0 1 1 1v2.1a4.71 4.71 0 0 0-2 0zm2 26a1 1 0 0 1-1 1 1 1 0 0 1-1-1V14.9a5.47 5.47 0 0 0 2 0zm1.87-18.16a3.16 3.16 0 0 1-.43.89l-.02.02c-.17.24-.38.45-.61.63h-.01c-.24.19-.51.33-.8.43a2.78 2.78 0 0 1-2 0c-.29-.1-.56-.24-.8-.43h-.01a3.04 3.04 0 0 1-.61-.63l-.02-.02a3.16 3.16 0 0 1-.38-.73l-.05-.16a2.9 2.9 0 0 1 0-1.68l.05-.16c.1-.26.22-.51.38-.74l.02-.01c.17-.24.38-.45.61-.63l.01-.01A3 3 0 0 1 27 7a3 3 0 0 1 2.42 1.25l.02.01c.16.23.28.48.38.74l.05.16a2.9 2.9 0 0 1 0 1.68zM19 18.02V3a3 3 0 0 0-3-3 3 3 0 0 0-3 3v15.02a4.97 4.97 0 0 0 0 7.96V29a3 3 0 0 0 3 3 3 3 0 0 0 3-3v-3.02a4.99 4.99 0 0 0 0-7.96zM15 3a1 1 0 0 1 1-1 1 1 0 0 1 1 1v14.1a4.71 4.71 0 0 0-2 0zm2 26a1 1 0 0 1-1 1 1 1 0 0 1-1-1v-2.1a5.47 5.47 0 0 0 2 0zm1.87-6.16a3.16 3.16 0 0 1-.43.89l-.02.02c-.17.24-.38.45-.61.63h-.01c-.24.19-.51.33-.8.43a2.78 2.78 0 0 1-2 0c-.29-.1-.56-.24-.8-.43h-.01a3.04 3.04 0 0 1-.61-.63l-.02-.02a3.16 3.16 0 0 1-.38-.73l-.05-.16a2.9 2.9 0 0 1 0-1.68l.05-.16c.1-.26.22-.51.38-.74l.02-.01c.17-.24.38-.45.61-.63l.01-.01A3 3 0 0 1 16 19a3 3 0 0 1 2.42 1.25l.02.01c.16.23.28.48.38.74l.05.16a2.9 2.9 0 0 1 0 1.68z"/></svg>