<svg xmlns="http://www.w3.org/2000/svg" width="18" height="18" viewBox="0 0 18 18"><path fill="gray" d="M16.5 1.5A4.94 4.94 0 0 0 13.17 0c-1 0-1.94.4-2.61 1.1L7.83 3.8s-.02 0-.03.1L2 9.7c-.27.3-.46.6-.57 1L.13 15.4s-.09.4-.09.6c0 1.1.88 2 1.96 2 .22 0 .63-.1.65-.1l4.75-1.3c.36-.1.69-.3.95-.6l8.55-8.6c1.55-1.5 1.38-4.1-.4-5.9zM9 13.4c-.04-.5-.18-1-.4-1.5l5.3-5.3c.32 1 .16 2.1-.55 2.8L9 13.8v-.4zm-.68-2a4.03 4.03 0 0 0-1.88-1.8l5.34-5.4c.42.2.82.5 1.17.8.3.3.54.7.72 1zm-2.4-2.1C5.38 9.1 4.84 9 4.3 9l4.31-4.4c.66-.6 1.62-.8 2.57-.6zm-3.55 7.5H2c-.46 0-.83-.3-.83-.8 0-.1.04-.3.06-.3l.59-2.2c.64 0 1.33.3 1.87.8.55.6.8 1.3.78 1.9zm2.64-.7c-.01-.8-.32-1.6-.94-2.2-.58-.6-1.34-.9-2.1-.9l.55-2c.04-.2.12-.3.22-.4 1.12-.8 2.85-.6 4.05.6 1.27 1.3 1.47 3.1.49 4.2-.06.1-.13.1-.2.1zm11.1-9.5l-.95 1c0-.1.02-.3 0-.4a4.6 4.6 0 0 0-1.42-2.9c-.9-1-2.12-1.5-3.32-1.5l.93-.9c.46-.5 1.11-.7 1.82-.7.9 0 1.83.4 2.54 1.1.67.6 1.07 1.5 1.12 2.3.06.8-.2 1.5-.72 2z"/></svg>