<svg xmlns="http://www.w3.org/2000/svg" width="32" height="28" viewBox="0 0 32 28"><path fill="#f39c12" d="M31.92 16.45l-4-15A2 2 0 0 0 26 0H6a2 2 0 0 0-1.92 1.45l-4 15A2.1 2.1 0 0 0 0 17v7a4 4 0 0 0 4 4h24a4 4 0 0 0 4-4v-7c0-.18-.02-.36-.08-.55zM30 24a2 2 0 0 1-2 2H4a2 2 0 0 1-2-2v-7L6 2h20l4 15zM23.74 4H8.26a1 1 0 0 0-.97.74l-3.44 12c-.08.3-.02.62.17.87.19.24.48.39.8.39h4.56l1.45 2.89A2 2 0 0 0 12.62 22h6.76a2 2 0 0 0 1.8-1.11L22.61 18h4.57c.3 0 .6-.15.79-.39.19-.25.25-.57.17-.87l-3.44-12a1 1 0 0 0-.97-.74zm-1.12 12c-.76 0-1.45.42-1.79 1.1L19.38 20h-6.76l-1.45-2.9A1.99 1.99 0 0 0 9.38 16H5.33L8.26 5h15.48l2.93 11z"/></svg>