<svg xmlns="http://www.w3.org/2000/svg" width="28" height="27" viewBox="0 0 28 27"><path fill="#0d0d0d" d="M27.5 10.15a1.96 1.96 0 0 0-1.57-1.29l-7.07-1.05-3.08-6.39A1.97 1.97 0 0 0 14 .32c-.76 0-1.45.43-1.78 1.1L9.14 7.81 2.07 8.86c-.73.11-1.33.61-1.57 1.29-.23.68-.06 1.43.46 1.94l5.18 5.18-1.2 7.18c-.12.73.2 1.45.8 1.88a2 2 0 0 0 1.14.34c.33 0 .65-.08.95-.23L14 23.11l6.17 3.33c.3.15.63.23.95.23a2 2 0 0 0 1.13-.34 1.9 1.9 0 0 0 .8-1.88l-1.2-7.18 5.2-5.18c.5-.51.68-1.26.45-1.94zm-7.05 5.78a1.9 1.9 0 0 0-.53 1.65l1.2 7.18-6.17-3.32a2 2 0 0 0-1.9 0l-6.17 3.32 1.2-7.18c.1-.6-.1-1.21-.53-1.65l-5.19-5.18L9.44 9.7c.65-.1 1.2-.5 1.48-1.08L14 2.24l3.08 6.38c.27.58.83.98 1.48 1.08l7.08 1.05z"/></svg>