<svg xmlns="http://www.w3.org/2000/svg" width="32" height="32" viewBox="0 0 32 32"><path fill="#fff" d="M31.11 28.33c-.2-.13-3.85-2.52-9.27-3.69a22.93 22.93 0 0 0 3.81-8.17c.75-3.13.46-9.25-2.55-13.07A8.75 8.75 0 0 0 16 0a8.75 8.75 0 0 0-7.1 3.4c-3.01 3.82-3.3 9.94-2.55 13.07a22.93 22.93 0 0 0 3.81 8.17C4.74 25.81 1.09 28.2.89 28.33A2 2 0 0 0 2 32h28a2 2 0 0 0 1.11-3.67zM20.27 23.4l-.33.41c-2.39 2.74-5.49 2.74-7.88 0l-.33-.41a17.14 17.14 0 0 1-3.57-12.65C8.71 6.47 11.16 2 16 2s7.29 4.47 7.84 8.75c.59 4.45-.79 9.12-3.57 12.65zM2 30c.14-.09 3.53-2.31 8.59-3.41l2.48-.54c.89.59 1.86.95 2.93.95s2.04-.36 2.93-.95l2.48.54A27.28 27.28 0 0 1 30 30z"/></svg>