<svg xmlns="http://www.w3.org/2000/svg" xmlns:xlink="http://www.w3.org/1999/xlink" width="20" height="20" viewBox="0 0 20 20"><defs><path id="a" d="M989.28 12051.58c-.14.44-.54.74-1 .74h-14.56a1.04 1.04 0 0 1-.58-1.9c.1-.08 2-1.32 4.82-1.93a11.81 11.81 0 0 1-1.98-4.25c-.39-1.63-.24-4.8 1.33-6.8a4.55 4.55 0 0 1 3.69-1.76c1.5 0 2.78.61 3.7 1.77 1.56 1.98 1.7 5.16 1.32 6.79a11.82 11.82 0 0 1-1.98 4.25 15.2 15.2 0 0 1 4.82 1.92c.38.25.55.73.42 1.17zm-4.2-10.31c-.29-2.23-1.56-4.55-4.08-4.55s-3.8 2.32-4.08 4.55c-.3 2.31.41 4.74 1.86 6.57l.17.22c1.24 1.42 2.86 1.42 4.1 0l.17-.22a8.9 8.9 0 0 0 1.86-6.57zm3.2 10c-.1-.06-1.85-1.2-4.46-1.76l-1.3-.29c-.46.3-.96.5-1.52.5s-1.06-.2-1.52-.5l-1.3.29c-2.63.56-4.39 1.72-4.46 1.77z"/></defs><g transform="translate(-971 -12034)"><use fill="#f39c12" xlink:href="#a"/></g></svg>