<svg xmlns="http://www.w3.org/2000/svg" width="29" height="29" viewBox="0 0 29 29"><path fill="#0d0d0d" d="M14.5.55a13.95 13.95 0 1 0 0 27.9 13.95 13.95 0 0 0 0-27.9zm12.13 13.5h-5.4c-.05-1.99-.4-3.9-1.03-5.64a14.92 14.92 0 0 0 3.36-1.98 12.1 12.1 0 0 1 3.07 7.62zM14 26.62a14.37 14.37 0 0 1-3.67-4.74c1.18-.37 2.43-.57 3.72-.61v5.36l-.05-.01zm1-24.25a14.7 14.7 0 0 1 4.02 5.52 14.1 14.1 0 0 1-4.07.74V2.37H15zm1.5.16c2.48.41 4.71 1.57 6.44 3.25-.94.72-1.97 1.34-3.08 1.8a15.88 15.88 0 0 0-3.36-5.05zm-2.45-.16v6.26a14.1 14.1 0 0 1-4.07-.74A14.7 14.7 0 0 1 14 2.37h.05zM9.14 7.58a13.73 13.73 0 0 1-3.08-1.8 12.06 12.06 0 0 1 6.44-3.25 15.88 15.88 0 0 0-3.36 5.05zm.5 1.14c1.39.48 2.87.76 4.41.81v4.52H8.67c.05-1.89.38-3.69.97-5.33zm4.41 6.23v5.42c-1.42.04-2.79.28-4.09.69a17.13 17.13 0 0 1-1.29-6.11zM12.5 26.47a12.12 12.12 0 0 1-5.89-2.75c.89-.61 1.85-1.13 2.87-1.53a15.8 15.8 0 0 0 3.02 4.28zm2.45.16v-5.36c1.29.04 2.54.24 3.72.61A14.37 14.37 0 0 1 15 26.62l-.05.01zm4.57-4.44c1.02.4 1.98.92 2.87 1.53a12.12 12.12 0 0 1-5.89 2.75 15.8 15.8 0 0 0 3.02-4.28zm-.48-1.13c-1.3-.41-2.67-.65-4.09-.69v-5.42h5.38a17.13 17.13 0 0 1-1.29 6.11zm-4.09-7.01V9.53c1.54-.05 3.02-.33 4.4-.81.6 1.64.93 3.44.98 5.33zM5.44 6.43A14.7 14.7 0 0 0 8.8 8.41a17.91 17.91 0 0 0-1.03 5.64h-5.4a12.1 12.1 0 0 1 3.07-7.62zm-3.07 8.52h5.4c.06 2.3.54 4.47 1.35 6.42-1.14.45-2.2 1.04-3.18 1.74a12.1 12.1 0 0 1-3.57-8.16zm20.69 8.16c-.98-.7-2.04-1.29-3.18-1.74a17.94 17.94 0 0 0 1.35-6.42h5.4a12.1 12.1 0 0 1-3.57 8.16z"/></svg>